<svg width="120" height="20" viewBox="0 0 120 20" fill="none" xmlns="http://www.w3.org/2000/svg">
<path d="M10.1648 19.9899V9.99371L0 19.9899H10.1648Z" fill="#231F20"/>
<path d="M20.3283 19.9899H30.491L20.3283 9.99371V19.9899Z" fill="#231F20"/>
<path d="M10.164 3.8147e-06V9.99618H20.3267L10.164 3.8147e-06Z" fill="#231F20"/>
<path d="M36.446 2.56647H40.0931V19.7788H36.446V2.56647Z" fill="#231F20"/>
<path d="M47.1152 6.94009C47.9097 6.92988 48.6957 7.10138 49.4113 7.44104C50.0991 7.7755 50.6952 8.26746 51.1496 8.87557V7.15537H54.7946V19.7826H51.1496V18.0851C50.7518 18.6974 50.1825 19.1834 49.5102 19.4845C48.7618 19.8322 47.9428 20.0078 47.1152 19.9978C46.3029 20.0085 45.4974 19.85 44.7517 19.5329C44.006 19.2157 43.3369 18.747 42.7884 18.1576C42.2388 17.5596 41.8141 16.8612 41.5383 16.102C41.2296 15.2593 41.0771 14.3689 41.0879 13.4731C41.0765 12.5662 41.2246 11.6642 41.5257 10.8069C41.791 10.0437 42.2081 9.34003 42.7526 8.73688C43.2812 8.16114 43.9332 7.70795 44.6614 7.40999C45.4387 7.09187 46.2734 6.93201 47.1152 6.94009ZM47.9907 16.6465C48.4283 16.6545 48.8629 16.5749 49.2682 16.4126C49.6408 16.2586 49.9796 16.0351 50.2657 15.7543C50.5512 15.4718 50.7741 15.1342 50.9202 14.7627C51.0781 14.3587 51.1567 13.9288 51.1517 13.4959C51.1688 13.0751 51.1002 12.6553 50.9498 12.261C50.7995 11.8668 50.5704 11.5061 50.2762 11.2002C49.9786 10.9054 49.622 10.6745 49.2289 10.5224C48.8358 10.3702 48.4149 10.3 47.9928 10.3163C47.5599 10.313 47.1306 10.3946 46.7301 10.5564C46.3537 10.7082 46.0112 10.9312 45.7221 11.2126C45.4326 11.4959 45.2067 11.8359 45.0591 12.2104C44.9019 12.619 44.8234 13.0528 44.8277 13.4897C44.8246 13.9195 44.9076 14.3457 45.0718 14.7441C45.222 15.1177 45.445 15.4587 45.7284 15.7481C46.0108 16.0323 46.3496 16.2564 46.7238 16.4063C47.1256 16.5687 47.5564 16.6504 47.9907 16.6465Z" fill="#231F20"/>
<path d="M60.1181 8.75223C60.5754 8.1828 61.1489 7.71389 61.8017 7.37566C62.407 7.06931 63.0781 6.90963 63.7589 6.90991C64.4917 6.89834 65.2126 7.09375 65.836 7.47295C66.4495 7.85373 66.9423 8.39584 67.2586 9.0379C67.7752 8.35931 68.4444 7.80741 69.2137 7.42534C69.9616 7.07597 70.7808 6.89966 71.6087 6.90991C72.2026 6.90238 72.7913 7.021 73.3344 7.25767C73.8448 7.48214 74.2972 7.81679 74.6581 8.2368C75.0342 8.68612 75.3199 9.20177 75.4999 9.7562C75.7095 10.3804 75.8126 11.0344 75.8051 11.6917V19.7648H72.1727V12.499C72.2056 11.892 72.0348 11.2912 71.6865 10.7891C71.5372 10.5863 71.3396 10.4225 71.1111 10.3121C70.8825 10.2017 70.6299 10.148 70.3754 10.1557C70.0437 10.1512 69.7157 10.2238 69.418 10.3677C69.1203 10.5116 68.8614 10.7227 68.6624 10.9837C68.2162 11.5357 67.9854 12.2651 67.97 13.1717V19.7689H64.3229V12.5031C64.3543 11.8891 64.1733 11.2828 63.8094 10.7829C63.6316 10.568 63.4031 10.399 63.1438 10.2907C62.8845 10.1825 62.6022 10.1383 62.3215 10.1619C62.0241 10.1847 61.7353 10.2704 61.4748 10.4134C61.2143 10.5563 60.9884 10.753 60.8125 10.9899C60.342 11.6192 60.0976 12.3846 60.1181 13.1655V19.7627H56.4731V7.13554H60.1181V8.75223Z" fill="#231F20"/>
<path d="M85.2246 6.94251C86.0744 6.93154 86.9177 7.08997 87.7037 7.40826C88.431 7.70679 89.0821 8.15992 89.6104 8.73515C90.1555 9.33819 90.5733 10.0418 90.8394 10.8052C91.1386 11.6629 91.286 12.5647 91.275 13.4714C91.2855 14.3669 91.1337 15.2571 90.8268 16.1003C90.5463 16.86 90.1174 17.5583 89.5641 18.1559C89.0261 18.732 88.3726 19.1923 87.6447 19.5076C86.8786 19.8372 86.0502 20.0037 85.214 19.9961C84.3904 20.007 83.5753 19.8314 82.8317 19.4827C82.1636 19.1796 81.5982 18.6938 81.2028 18.0834V19.7808H77.5684V2.56647H81.2134V8.87799C81.6655 8.2726 82.2568 7.78103 82.9391 7.44346C83.6507 7.1032 84.4334 6.93163 85.2246 6.94251ZM84.3828 16.6489C84.8157 16.6523 85.245 16.5706 85.6455 16.4087C86.0204 16.259 86.36 16.035 86.643 15.7505C86.9258 15.4607 87.1488 15.1198 87.2996 14.7465C87.4622 14.3478 87.5444 13.9217 87.5416 13.4921C87.5459 13.0552 87.4674 12.6214 87.3101 12.2128C87.1651 11.8371 86.9422 11.4952 86.6556 11.2088C86.3688 10.9294 86.0302 10.7066 85.6581 10.5526C85.2539 10.3884 84.82 10.3067 84.3828 10.3125C83.9607 10.2964 83.5398 10.3666 83.1468 10.5188C82.7537 10.6709 82.3971 10.9017 82.0994 11.1964C81.8052 11.5023 81.5761 11.863 81.4258 12.2572C81.2754 12.6515 81.2068 13.0713 81.2239 13.4921C81.2189 13.925 81.2975 14.3548 81.4554 14.7589C81.6015 15.1309 81.8252 15.4687 82.112 15.7505C82.3968 16.0344 82.7358 16.2602 83.1095 16.415C83.5111 16.5749 83.9411 16.6545 84.3743 16.6489H84.3828Z" fill="#231F20"/>
<path d="M97.6197 6.94251C98.4142 6.9323 99.2002 7.1038 99.9157 7.44346C100.603 7.77846 101.199 8.27032 101.654 8.87799V2.56647H105.299V19.7788H101.654V18.0813C101.255 18.6937 100.685 19.1796 100.013 19.4807C99.2649 19.8282 98.4466 20.0038 97.6197 19.9941C96.7875 20.0025 95.9631 19.836 95.2016 19.5055C94.4779 19.1885 93.8281 18.7284 93.2928 18.1538C92.7395 17.5563 92.3106 16.858 92.0301 16.0983C91.7232 15.2551 91.5714 14.3649 91.5819 13.4693C91.5709 12.5626 91.7183 11.6608 92.0175 10.8031C92.2836 10.0398 92.7014 9.33613 93.2465 8.73309C93.7748 8.15785 94.4259 7.70472 95.1532 7.4062C95.9349 7.08861 96.7741 6.93084 97.6197 6.94251ZM98.4931 16.6489C98.9327 16.6577 99.3696 16.5781 99.7768 16.415C100.149 16.2605 100.487 16.037 100.772 15.7567C101.059 15.4749 101.283 15.1371 101.429 14.7652C101.587 14.3611 101.665 13.9312 101.66 13.4983C101.677 13.0776 101.609 12.6577 101.458 12.2634C101.308 11.8692 101.079 11.5085 100.785 11.2026C100.487 10.9076 100.13 10.6767 99.7365 10.5246C99.3431 10.3724 98.9218 10.3023 98.4994 10.3187C98.0664 10.3153 97.6372 10.397 97.2367 10.5589C96.86 10.7101 96.5174 10.9331 96.2286 11.2151C95.9399 11.4986 95.7148 11.8385 95.5678 12.2128C95.4096 12.6211 95.3311 13.0551 95.3363 13.4921C95.3323 13.922 95.4152 14.3485 95.5804 14.7465C95.7292 15.1204 95.9516 15.4616 96.2349 15.7505C96.5168 16.037 96.8556 16.2632 97.2304 16.415C97.6313 16.5747 98.0606 16.6543 98.4931 16.6489Z" fill="#231F20"/>
<path d="M112.322 6.94008C113.117 6.92994 113.904 7.10142 114.62 7.44104C115.307 7.77557 115.903 8.26754 116.356 8.87557V7.15537H120.004V19.7826H116.356V18.0851C115.959 18.6974 115.389 19.1834 114.717 19.4845C113.969 19.8322 113.15 20.0078 112.322 19.9978C111.49 20.0059 110.666 19.8394 109.904 19.5093C109.181 19.1917 108.532 18.7316 107.997 18.1576C107.447 17.5597 107.022 16.8613 106.745 16.102C106.436 15.2593 106.284 14.3689 106.295 13.4731C106.285 12.5663 106.433 11.6645 106.733 10.8069C106.999 10.0441 107.416 9.34055 107.959 8.73688C108.489 8.16206 109.141 7.70902 109.868 7.40999C110.646 7.09186 111.48 6.93201 112.322 6.94008ZM113.198 16.6465C113.635 16.6523 114.069 16.5706 114.473 16.4063C114.846 16.2524 115.184 16.0289 115.47 15.7481C115.757 15.4657 115.98 15.1281 116.127 14.7565C116.284 14.3523 116.362 13.9224 116.356 13.4897C116.374 13.0691 116.306 12.6493 116.156 12.255C116.006 11.8607 115.777 11.5 115.483 11.194C115.185 10.899 114.828 10.6681 114.435 10.5159C114.041 10.3638 113.62 10.2937 113.198 10.3101C112.765 10.3065 112.335 10.3881 111.935 10.5502C111.558 10.702 111.215 10.9249 110.925 11.2064C110.638 11.4928 110.415 11.8347 110.27 12.2104C110.112 12.6187 110.033 13.0527 110.039 13.4897C110.035 13.9194 110.117 14.3456 110.281 14.7441C110.431 15.1177 110.654 15.4587 110.937 15.7481C111.22 16.0325 111.56 16.2566 111.935 16.4063C112.335 16.5684 112.765 16.6501 113.198 16.6465Z" fill="#231F20"/>
</svg>
